<svg xmlns="http://www.w3.org/2000/svg" viewBox="0 0 1200 900" width="1200" height="900" role="img" aria-label="Commits">
  <defs>
    <linearGradient id="g" x1="0" y1="0" x2="1" y2="1">
      <stop offset="0%" stop-color="hsl(40, 86%, 56%)"/>
      <stop offset="55%" stop-color="hsl(28, 82%, 45%)"/>
      <stop offset="100%" stop-color="hsl(20, 76%, 34%)"/>
    </linearGradient>
    <pattern id="grid" width="48" height="48" patternUnits="userSpaceOnUse">
      <path d="M48 0H0v48" fill="none" stroke="#ffffff" stroke-opacity="0.07" stroke-width="1"/>
    </pattern>
    <radialGradient id="glow" cx="0.22" cy="0.18" r="0.85">
      <stop offset="0%" stop-color="#ffffff" stop-opacity="0.22"/>
      <stop offset="100%" stop-color="#ffffff" stop-opacity="0"/>
    </radialGradient>
  </defs>
  <rect width="1200" height="900" fill="url(#g)"/>
  <rect width="1200" height="900" fill="url(#grid)"/>
  <rect width="1200" height="900" fill="url(#glow)"/>
  <g transform="translate(515.0 314.9) scale(7.0833)" fill="#ffffff" fill-opacity="0.92"><path d="M23.546 10.93L13.067.452c-.604-.603-1.582-.603-2.188 0L8.708 2.627l2.76 2.76c.645-.215 1.379-.07 1.889.441.516.515.658 1.258.438 1.9l2.658 2.66c.645-.223 1.387-.078 1.9.435.721.72.721 1.884 0 2.604-.719.719-1.881.719-2.6 0-.539-.541-.674-1.337-.404-1.996L12.86 8.955v6.525c.176.086.342.203.488.348.713.721.713 1.883 0 2.6-.719.721-1.889.721-2.609 0-.719-.719-.719-1.879 0-2.598.182-.18.387-.316.605-.406V8.835c-.217-.091-.424-.222-.6-.401-.545-.545-.676-1.342-.396-2.009L7.636 3.7.45 10.881c-.6.605-.6 1.584 0 2.189l10.48 10.477c.604.604 1.582.604 2.186 0l10.43-10.43c.605-.603.605-1.582 0-2.187"/></g>
  <g>
    <text x="600" y="585.1" text-anchor="middle" font-family="'Roboto Mono',monospace" font-size="78" font-weight="700" letter-spacing="4" fill="#ffffff">COMMITS</text>
  </g>
  <rect x="0" y="890" width="1200" height="10" fill="#ffffff" fill-opacity="0.25"/>
</svg>
