<svg xmlns="http://www.w3.org/2000/svg" viewBox="0 0 1200 900" width="1200" height="900" role="img" aria-label="Desafio de Programação">
  <defs>
    <linearGradient id="g" x1="0" y1="0" x2="1" y2="1">
      <stop offset="0%" stop-color="hsl(62, 86%, 56%)"/>
      <stop offset="55%" stop-color="hsl(50, 82%, 45%)"/>
      <stop offset="100%" stop-color="hsl(42, 76%, 34%)"/>
    </linearGradient>
    <pattern id="grid" width="48" height="48" patternUnits="userSpaceOnUse">
      <path d="M48 0H0v48" fill="none" stroke="#ffffff" stroke-opacity="0.07" stroke-width="1"/>
    </pattern>
    <radialGradient id="glow" cx="0.22" cy="0.18" r="0.85">
      <stop offset="0%" stop-color="#ffffff" stop-opacity="0.22"/>
      <stop offset="100%" stop-color="#ffffff" stop-opacity="0"/>
    </radialGradient>
  </defs>
  <rect width="1200" height="900" fill="url(#g)"/>
  <rect width="1200" height="900" fill="url(#grid)"/>
  <rect width="1200" height="900" fill="url(#glow)"/>
  <g transform="translate(515.0 279.5) scale(0.2951)" fill="#ffffff" fill-opacity="0.92"><path d="M400 0H176c-26.5 0-48.1 21.8-47.1 48.2c.2 5.3 .4 10.6 .7 15.8H24C10.7 64 0 74.7 0 88c0 92.6 33.5 157 78.5 200.7c44.3 43.1 98.3 64.8 138.1 75.8c23.4 6.5 39.4 26 39.4 45.6c0 20.9-17 37.9-37.9 37.9H192c-17.7 0-32 14.3-32 32s14.3 32 32 32H384c17.7 0 32-14.3 32-32s-14.3-32-32-32H357.9C337 448 320 431 320 410.1c0-19.6 15.9-39.2 39.4-45.6c39.9-11 93.9-32.7 138.2-75.8C542.5 245 576 180.6 576 88c0-13.3-10.7-24-24-24H446.4c.3-5.2 .5-10.4 .7-15.8C448.1 21.8 426.5 0 400 0zM48.9 112h84.4c9.1 90.1 29.2 150.3 51.9 190.6c-24.9-11-50.8-26.5-73.2-48.3c-32-31.1-58-76-63-142.3zM464.1 254.3c-22.4 21.8-48.3 37.3-73.2 48.3c22.7-40.3 42.8-100.5 51.9-190.6h84.4c-5.1 66.3-31.1 111.2-63 142.3z"/></g>
  <g>
    <text x="600" y="540.2" text-anchor="middle" font-family="'Roboto Mono',monospace" font-size="78" font-weight="700" letter-spacing="4" fill="#ffffff">DESAFIO DE</text>
    <text x="600" y="629.9" text-anchor="middle" font-family="'Roboto Mono',monospace" font-size="78" font-weight="700" letter-spacing="4" fill="#ffffff">PROGRAMAÇÃO</text>
  </g>
  <rect x="0" y="890" width="1200" height="10" fill="#ffffff" fill-opacity="0.25"/>
</svg>
